PathFileType	4	(X/Y/Z)	/Users/visionmauri/1_8_1_f_Sports2D/1_8_1_f_Sports2D_px_person00.trc
DataRate	CameraRate	NumFrames	NumMarkers	Units	OrigDataRate	OrigDataStartFrame	OrigNumFrames
30.0	30.0	6	22	m	30.0	89	358
Frame#	Time	Hip			RHip			RKnee			RAnkle			RBigToe			RSmallToe			RHeel			LHip			LKnee			LAnkle			LBigToe			LSmallToe			LHeel			Neck			Head			Nose			RShoulder			RElbow			RWrist			LShoulder			LElbow			LWrist			
		X1	Y1	Z1	X2	Y2	Z2	X3	Y3	Z3	X4	Y4	Z4	X5	Y5	Z5	X6	Y6	Z6	X7	Y7	Z7	X8	Y8	Z8	X9	Y9	Z9	X10	Y10	Z10	X11	Y11	Z11	X12	Y12	Z12	X13	Y13	Z13	X14	Y14	Z14	X15	Y15	Z15	X16	Y16	Z16	X17	Y17	Z17	X18	Y18	Z18	X19	Y19	Z19	X20	Y20	Z20	X21	Y21	Z21	X22	Y22	Z22
89	2.9749766573295986	547.684389131984	863.8559843304845	0.0	607.7770752477763	865.2104368512224	0.0	596.2673821184375	1106.0581295629675	0.0	580.4841569116122	1320.279271218517	0.0	559.5805634164823	1345.4849369082708	0.0	597.4090633359941	1356.469539089193	0.0	572.5299877127412	1352.0231822345604	0.0	489.2046538694222	866.4045458929508	0.0	492.1991942678094	1058.7748399261857	0.0	493.8921887316554	1103.7433092892657	0.0	496.1592774982387	1162.0746233575537	0.0	462.7194321336515	1147.8841919164897	0.0	495.5903573404214	1097.4216082939806	0.0	532.9106842402392	545.502629945817	0.0	531.7176427247412	430.80620927513854	0.0	536.0287653126887	495.74261891287745	0.0	635.7605550168217	578.8280761718677	0.0	707.8932175786466	704.8200388881276	0.0	743.9420679893453	845.5551036277918	0.0	428.2198553151945	589.2173124138478	0.0	381.46134094224976	744.6977151843003	0.0	384.3600604186544	758.5308503140659	0.0
90	3.008403361344538	550.7235958973781	860.5277751925753	0.0	609.7587871620385	863.4700668474624	0.0	597.2653661613574	1104.7659738143748	0.0	580.5342736428237	1321.3661886197406	0.0	560.071912128123	1345.5354545204725	0.0	598.301852503083	1355.6236012585646	0.0	571.3510836709805	1350.527430181512	0.0	493.26873967152346	862.988095156862	0.0	494.68847293339655	1052.5031398670385	0.0	496.8911330073912	1093.8340466292457	0.0	497.2235953094114	1155.5297662951327	0.0	463.7826931747689	1139.2218217151046	0.0	498.6200002990453	1086.4218725994076	0.0	537.4372639775927	546.012935044295	0.0	535.7010496174142	431.20251403893724	0.0	542.3611439095013	495.7840294940433	0.0	639.474904457563	577.9608849602921	0.0	710.5324540446709	704.8794552094798	0.0	743.7748021768921	845.9268483412659	0.0	432.6283749795565	587.4834720742939	0.0	386.8920107329609	744.4222151293633	0.0	391.6265826185189	756.2333349947654	0.0
91	3.041830065359477	552.1167980371563	858.0657641239123	0.0	610.655408270974	863.12166139989	0.0	597.1832212211401	1102.3426834160382	0.0	580.3058943008293	1321.915988772345	0.0	559.309488444076	1347.965204450359	0.0	599.0119312933374	1357.4387318778881	0.0	570.8054248351897	1349.9791097902482	0.0	495.43178772672616	860.9011788647222	0.0	496.3448612665836	1050.985702567392	0.0	496.3981845022457	1088.8586852982305	0.0	495.03635140719837	1143.8249519059693	0.0	462.1818314966147	1154.7322891919068	0.0	499.9298215996602	1078.8287840356122	0.0	541.3169923469519	546.5337756654417	0.0	539.7370887715919	430.94712067982886	0.0	546.0399982697174	495.844639895044	0.0	642.9768459681429	577.7037859247664	0.0	712.4147505291888	705.6229842123865	0.0	742.458145176621	846.602552056449	0.0	437.06383096052616	585.9806590691717	0.0	392.3119179746021	742.7473481873097	0.0	397.8208135571428	754.3513601667557	0.0
92	3.075256769374416	552.7464738424417	857.0489754793505	0.0	610.916962044619	863.3624955853658	0.0	597.1099614024206	1100.097682936266	0.0	579.3319827279628	1321.788569968961	0.0	556.986504530646	1350.8576375367766	0.0	597.6944650632092	1359.725758836652	0.0	570.7666782695698	1351.7724900932415	0.0	496.62119524421	860.1525719377324	0.0	497.3979843635515	1052.21995247728	0.0	494.01833703483106	1097.1555379536294	0.0	489.45036407233465	1134.6915861831071	0.0	457.8932248657628	1215.0099001256103	0.0	498.9136103408547	1103.3101233002435	0.0	544.9564690339505	546.6110285896699	0.0	543.9060002289173	430.6561239180664	0.0	547.8422442387011	495.9357441160496	0.0	646.8311349389844	577.8871485764407	0.0	714.5082554824861	706.4656499277174	0.0	740.1824548838911	846.3555084011484	0.0	441.82666451320546	584.6248663160796	0.0	397.4029975904912	740.127972102952	0.0	403.0226314207941	754.072423445248	0.0
93	3.108683473389356	554.4178632483926	856.2788289081171	0.0	612.1655723193634	861.8548414371559	0.0	598.2188914871645	1099.416150103268	0.0	578.3313716626722	1320.7910282337843	0.0	553.2087271685083	1352.3967382366106	0.0	594.0277376549466	1360.397788786517	0.0	571.3942705661926	1353.5264076320025	0.0	498.90306175028684	858.5486897871725	0.0	498.7996902222623	1052.800275524895	0.0	494.10176206108565	1120.6231916255515	0.0	486.04314283666577	1143.9423610764347	0.0	455.3296908369348	1290.0847367394922	0.0	498.56688884678954	1171.0344569005267	0.0	549.357039052611	545.3780563767727	0.0	547.5934730280769	430.4948904064716	0.0	549.4212968480134	496.1041597695816	0.0	651.4963134557073	577.9149132474943	0.0	716.857269861385	707.0418037316449	0.0	737.9168013019254	844.4625478798414	0.0	446.9319078572042	582.517898781174	0.0	401.74307994509815	736.5961773383792	0.0	407.6708317593441	755.1791086815838	0.0
94	3.142110177404295	557.0152460144176	855.219690636334	0.0	614.2507510706185	859.2860826880344	0.0	599.8395137454065	1099.9850476372249	0.0	578.2028354305533	1319.6079872469325	0.0	549.938231837167	1352.6222202371134	0.0	590.6916832232481	1359.96990937869	0.0	572.3842004261473	1353.0379619331497	0.0	501.3993745021842	856.7635646639911	0.0	500.6827754100023	1051.330191695046	0.0	497.31366479832343	1153.1671996673704	0.0	487.7612691233084	1196.5834098840612	0.0	457.2555196151146	1331.9431769062476	0.0	500.21902611393284	1242.250377100467	0.0	554.2923804761551	543.9263115415254	0.0	550.4710620543926	430.33676335536495	0.0	551.9328136904136	496.46413978373096	0.0	656.333734732161	577.7589971380305	0.0	719.096518176518	708.6848573123402	0.0	736.4244102822267	842.3742965615554	0.0	452.3663807548821	579.7019092110884	0.0	405.43663623287705	733.2237295833298	0.0	411.75432836010594	753.5473788741976	0.0
